PathFileType	4	(X/Y/Z)	c:/Users/goper/Files/vsCode/490R/osim_files/A06/A06_SSWS_03.trc
DataRate	CameraRate	NumFrames	NumMarkers	Units                	OrigDataRate	OrigDataStartFrame	OrigNumFrames
120.00	120.00	11	36	mm	120.0	857	1142
                Frame#	Time	LPSIS			LASIS			LTH1			LTH2			LTH3			LTH4			LLFE			LMFE			LSH1			LSH2			LSH3			LSH4			LLMAL			LMMAL			LCAL			LMTP5			LTOE			LMTP1			RPSIS			RASIS			RTH1			RTH2			RTH3			RTH4			RLFE			RMFE			RSH1			RSH2			RSH3			RSH4			RLMAL			RMMAL			RCAL			RMTP1			RTOE			RMTP5		
		X1	Y1	Z1	X2	Y2	Z2	X3	Y3	Z3	X4	Y4	Z4	X5	Y5	Z5	X6	Y6	Z6	X7	Y7	Z7	X8	Y8	Z8	X9	Y9	Z9	X10	Y10	Z10	X11	Y11	Z11	X12	Y12	Z12	X13	Y13	Z13	X14	Y14	Z14	X15	Y15	Z15	X16	Y16	Z16	X17	Y17	Z17	X18	Y18	Z18	X19	Y19	Z19	X20	Y20	Z20	X21	Y21	Z21	X22	Y22	Z22	X23	Y23	Z23	X24	Y24	Z24	X25	Y25	Z25	X26	Y26	Z26	X27	Y27	Z27	X28	Y28	Z28	X29	Y29	Z29	X30	Y30	Z30	X31	Y31	Z31	X32	Y32	Z32	X33	Y33	Z33	X34	Y34	Z34	X35	Y35	Z35	X36	Y36	Z36

857	7.13333	0.00000	0.00000	0.00000	-4153.65186	944.05768	315.63110	-4193.47412	600.56842	363.54468	-4215.63525	564.68793	360.16925	-4247.58643	626.55676	353.10944	-4261.55518	586.35956	350.37692	-4264.99365	507.24731	344.40018	-4272.32959	504.16794	234.21887	-4210.21680	410.42892	354.63870	0.00000	0.00000	0.00000	-4269.45605	415.66168	349.96835	-4270.89795	372.62323	352.98337	-4231.37109	109.35632	309.38708	-4261.62354	127.28577	232.51147	0.00000	0.00000	0.00000	-4341.71777	67.17483	340.72812	-4389.21045	89.72692	295.08231	-4370.84766	85.85531	254.49065	0.00000	0.00000	0.00000	-4163.56250	963.72687	56.68994	-4000.06909	601.67523	18.68866	-3999.13208	558.05530	15.68464	-4061.17578	593.66241	28.15607	-4049.81128	548.45782	27.17917	-4004.44946	443.11197	46.48673	0.00000	0.00000	0.00000	-3958.00049	292.94199	61.93594	0.00000	0.00000	0.00000	-4013.49463	279.22464	75.51053	-4000.17017	233.54861	71.88355	-3919.52417	103.98478	57.75341	-3928.51172	108.06307	139.71960	0.00000	0.00000	0.00000	-4062.96118	58.48409	140.29102	-4080.40137	69.07773	99.95638	-4054.02417	55.39459	51.99053
858	7.14167	0.00000	0.00000	0.00000	-4163.35742	942.80951	316.36761	-4201.28564	598.57898	363.14120	-4223.60059	562.79224	359.85559	-4255.44678	624.65698	353.25668	-4269.47412	584.46924	350.50653	-4273.51953	505.81378	343.85077	-4280.93408	502.65561	234.00717	-4223.98145	406.95135	355.25192	-4233.92383	361.16272	359.81256	-4282.96094	414.23196	350.11526	-4286.11670	372.31445	353.43069	-4262.84229	107.73933	315.03479	-4290.72559	126.52876	234.86513	0.00000	0.00000	0.00000	-4374.41211	72.00169	343.28629	0.00000	0.00000	0.00000	-4402.17480	91.72074	256.89896	0.00000	0.00000	0.00000	-4172.84473	962.74756	57.37094	-4006.46802	601.71307	19.19611	0.00000	0.00000	0.00000	-4067.41089	593.08966	28.67577	-4055.38574	547.84473	28.08556	-4008.29956	443.22568	46.27174	0.00000	0.00000	0.00000	-3960.58081	293.42007	61.00592	0.00000	0.00000	0.00000	-4016.21362	279.12549	75.72913	-4002.24365	233.56013	72.05460	-3919.57666	103.97977	57.71878	-3932.53174	111.80867	141.86882	0.00000	0.00000	0.00000	-4062.15405	57.85775	140.67038	-4080.60864	68.87266	99.98278	-4054.17578	55.30690	52.03611
859	7.15000	0.00000	0.00000	0.00000	-4173.17041	941.44775	317.13898	-4208.83057	596.19269	362.69180	-4231.09424	560.40552	359.39395	-4262.99463	622.18781	353.33316	-4277.05273	582.08478	350.52115	-4281.86621	504.11371	343.06070	-4289.20557	500.80792	233.44197	-4237.62207	403.55542	355.86786	-4249.74219	358.26804	360.62021	-4295.59082	413.91574	350.23993	-4300.87109	372.06250	353.84155	-4292.61328	106.03164	317.71384	-4319.22852	126.63049	237.30603	0.00000	0.00000	0.00000	-4408.05518	76.87207	345.49020	0.00000	0.00000	0.00000	-4432.38721	98.60347	259.15573	0.00000	0.00000	0.00000	-4182.15869	961.76324	58.06970	-4013.02295	601.73096	19.73114	-4011.23901	560.19110	17.57457	-4073.82910	592.53394	29.28546	-4061.10962	547.17596	29.15196	-4012.91260	443.21552	46.61502	0.00000	0.00000	0.00000	-3963.62988	294.05618	61.10153	0.00000	0.00000	0.00000	-4019.01392	279.04556	75.94478	-4004.56787	233.63821	72.21310	-3919.84521	104.24194	57.65396	-3932.88525	112.11578	141.87791	0.00000	0.00000	0.00000	-4063.22949	58.58466	140.22754	-4080.78931	68.65853	100.02925	-4054.33740	55.25162	52.04778
860	7.15833	0.00000	0.00000	0.00000	-4183.11475	939.91382	317.88043	-4215.87061	593.30225	362.09213	-4238.29346	557.63623	358.76007	-4270.32324	619.27551	353.44632	-4284.22705	579.11499	350.33301	-4289.84863	502.11954	342.02148	-4297.24609	498.72372	232.61406	-4250.95654	400.32907	356.21262	-4265.01318	355.49210	361.16391	-4308.02686	413.68668	350.32138	-4315.30664	372.01147	354.25269	-4321.66748	105.09772	320.52399	-4345.06494	130.94083	239.26921	0.00000	0.00000	0.00000	-4438.26465	83.60725	347.94696	0.00000	0.00000	0.00000	-4461.26367	106.17218	261.26205	0.00000	0.00000	0.00000	-4191.51514	960.78571	58.72436	-4019.70020	601.70001	20.28623	-4017.38525	560.24109	18.23422	-4080.24365	591.80981	30.09334	-4066.77051	546.45850	30.50041	-4017.56494	443.15671	47.08996	0.00000	0.00000	0.00000	-3966.96313	294.59085	62.44971	0.00000	0.00000	0.00000	-4021.76831	278.88885	76.19115	-4006.78394	233.69069	72.43581	-3920.18726	104.61420	57.62199	-3933.35791	112.51245	141.95065	-3863.71436	92.80239	105.01424	-4063.36108	58.47070	140.23627	-4080.99048	68.47097	100.04280	-4054.50049	55.19107	52.05253
861	7.16667	0.00000	0.00000	0.00000	-4193.27930	938.33899	318.60385	-4222.99951	591.49481	360.93265	0.00000	0.00000	0.00000	-4277.55029	615.93384	353.48465	-4291.22314	575.67969	350.06033	-4297.67627	499.85901	341.14682	-4305.13379	496.38416	231.81204	-4264.07910	397.50131	356.31689	-4279.96289	353.35309	361.62314	-4320.21387	413.53922	350.21603	-4329.38721	372.20599	354.60483	-4349.71240	104.97703	323.34082	0.00000	0.00000	0.00000	0.00000	0.00000	0.00000	-4466.90869	90.99392	350.15137	0.00000	0.00000	0.00000	-4488.59570	114.11030	263.22879	0.00000	0.00000	0.00000	-4200.84717	959.78516	59.38553	-4026.53638	601.68433	20.86310	-4025.43213	559.43463	18.41594	-4087.10376	590.48322	30.93304	-4070.23584	545.33228	32.47281	-4022.03687	443.03967	47.89163	0.00000	0.00000	0.00000	-3969.10522	294.77127	62.12199	0.00000	0.00000	0.00000	-4024.66016	278.72531	76.50740	-4009.97754	233.87871	72.47445	-3920.58081	105.07088	57.69091	-3933.94507	112.99445	142.12360	-3864.28735	92.98751	107.33426	-4063.56860	58.32654	140.25475	-4081.25537	68.19805	100.07693	-4054.64453	55.04775	52.12075
862	7.17500	0.00000	0.00000	0.00000	-4203.64941	936.68726	319.30310	-4229.93213	588.01538	360.56564	0.00000	0.00000	0.00000	-4284.71289	612.23108	353.53867	-4298.20605	571.98395	349.75375	-4305.43311	497.45508	340.54639	-4312.75879	493.88922	231.23993	-4276.93945	394.86896	356.33990	-4294.45605	351.42032	361.92181	-4332.14062	413.37082	350.15707	-4343.11084	372.47012	354.91791	-4376.44336	105.79919	325.88629	0.00000	0.00000	0.00000	0.00000	0.00000	0.00000	-4494.04980	99.00031	352.13913	0.00000	0.00000	0.00000	-4514.33105	121.94378	264.83774	0.00000	0.00000	0.00000	-4210.15381	958.76538	60.07145	-4033.51538	601.60175	21.52332	-4031.77100	559.40057	19.09273	-4093.86597	589.64612	31.54866	-4076.70703	544.97845	33.23149	-4028.14355	443.01660	48.84873	0.00000	0.00000	0.00000	-3974.37183	294.67648	62.07500	0.00000	0.00000	0.00000	-4027.68799	278.63980	76.84067	-4012.45435	234.00613	72.86004	-3924.95288	109.86623	60.37171	-3934.50781	113.40755	142.39630	-3863.41211	92.20061	104.08262	-4063.84277	58.09140	140.29376	-4080.08081	67.04176	100.65105	-4054.81445	54.94011	52.17138
863	7.18333	0.00000	0.00000	0.00000	-4214.21240	934.98022	319.96970	-4236.97607	584.40863	360.47552	-4259.17725	547.34753	357.33035	-4291.96094	608.32990	353.62485	-4305.24219	568.04871	349.53116	-4313.09912	494.59250	340.28299	-4320.20166	491.33517	230.82764	-4289.44336	392.23242	356.59552	-4308.51025	349.54230	362.33502	-4343.62207	413.12616	350.27151	-4356.29834	372.69684	355.36984	-4401.73779	107.23540	328.04193	0.00000	0.00000	0.00000	0.00000	0.00000	0.00000	-4519.54248	106.70248	353.48901	0.00000	0.00000	0.00000	-4538.45947	129.52153	266.02957	0.00000	0.00000	0.00000	-4219.37061	957.74347	60.70964	-4040.72485	601.51880	22.15150	-4039.26245	560.18738	20.08335	-4100.82471	588.76031	32.20813	-4083.33203	544.63373	34.08710	-4033.26147	442.95898	49.35643	0.00000	0.00000	0.00000	-3976.74609	296.27640	63.49522	0.00000	0.00000	0.00000	-4030.78735	278.53577	77.19034	-4015.13647	234.21288	73.03604	0.00000	0.00000	0.00000	0.00000	0.00000	0.00000	-3865.20166	95.43755	105.73213	-4064.15283	57.88195	140.32256	-4081.58130	67.78622	100.13184	-4054.96973	54.85916	52.21233
864	7.19167	0.00000	0.00000	0.00000	-4226.05713	934.14874	321.13315	-4244.48486	580.89465	360.50861	-4266.50244	543.74042	357.32010	-4299.56787	604.56720	353.77328	-4312.60840	564.22198	349.55072	-4321.09473	491.37451	340.31271	-4327.41846	488.78134	230.50041	-4301.54053	389.54926	357.08496	-4322.01172	347.63657	362.94510	-4354.70752	412.68201	350.45364	-4368.91357	372.76755	355.74280	0.00000	0.00000	0.00000	0.00000	0.00000	0.00000	0.00000	0.00000	0.00000	-4542.50586	114.13411	354.65912	0.00000	0.00000	0.00000	-4560.70654	136.86626	266.92639	0.00000	0.00000	0.00000	-4228.58887	956.73315	61.34150	-4048.12988	601.40485	22.74612	-4044.90430	559.28693	20.32649	-4107.93311	587.81281	32.84061	-4093.01245	544.69073	29.95177	-4037.32495	442.74628	49.54694	0.00000	0.00000	0.00000	-3979.83008	296.80255	62.81540	0.00000	0.00000	0.00000	-4033.98682	278.41162	77.54038	-4017.84570	234.43939	73.42892	0.00000	0.00000	0.00000	0.00000	0.00000	0.00000	-3864.60645	94.24402	104.80730	-4064.44824	57.72131	140.34793	-4081.87744	67.49723	100.13531	-4055.19995	54.87852	52.23694
865	7.20000	-4050.32935	991.19427	241.26682	-4236.78613	932.24841	321.55469	-4252.48730	577.68280	360.60117	-4274.45947	540.53253	357.43396	-4307.67871	601.23267	353.91321	-4320.56885	560.82990	349.70917	-4329.58398	488.20139	340.49240	-4334.76660	486.27960	230.24590	-4313.29395	387.01318	357.73245	-4335.09668	346.14200	363.53329	-4365.43164	411.98636	350.76672	-4381.04150	372.58334	356.12149	0.00000	0.00000	0.00000	0.00000	0.00000	0.00000	-4407.83691	67.86546	330.38376	-4563.20117	120.68498	355.31750	0.00000	0.00000	0.00000	-4580.94385	143.67279	267.59192	0.00000	0.00000	0.00000	-4235.31348	955.43738	62.73931	-4055.66406	601.20685	23.29828	-4051.71167	559.23138	21.00979	-4115.16846	586.73895	33.42842	-4099.72607	543.80725	30.51639	-4043.13379	442.77179	49.71399	0.00000	0.00000	0.00000	-3983.45459	297.44089	63.15910	0.00000	0.00000	0.00000	-4037.25854	278.31485	77.86844	-4020.61523	234.65154	73.75190	0.00000	0.00000	0.00000	0.00000	0.00000	0.00000	-3866.29614	96.63170	108.65181	-4064.72510	57.54735	140.39049	-4082.16333	67.25597	100.14838	-4055.39038	54.83709	52.26722
866	7.20833	0.00000	0.00000	0.00000	-4247.64111	930.30383	321.86243	-4261.39062	575.01257	360.64551	-4283.28418	537.74554	357.52124	-4316.64844	598.33093	354.01874	-4329.41553	557.88538	349.82849	-4338.60449	485.40067	340.80466	-4342.77881	483.91684	230.13841	-4324.70410	384.57816	358.27805	0.00000	0.00000	0.00000	-4376.07324	411.00641	351.16977	-4391.73389	373.84177	358.57404	0.00000	0.00000	0.00000	0.00000	0.00000	0.00000	-4427.11182	68.66785	331.09753	-4581.70166	125.54288	355.64035	0.00000	0.00000	0.00000	-4599.02295	149.19200	267.94641	0.00000	0.00000	0.00000	-4244.59375	954.70520	63.24320	-4063.46436	600.86279	23.79715	-4057.13940	557.28937	21.02706	-4122.66211	585.63330	33.96124	-4106.56543	542.89093	31.03484	-4048.64795	442.63412	50.20337	0.00000	0.00000	0.00000	-3987.09717	298.10226	63.47190	0.00000	0.00000	0.00000	-4039.90869	277.19305	78.62148	-4023.74731	234.83498	72.94686	-3926.93408	112.41115	61.40498	-3937.18042	115.33345	143.68304	-3866.63257	98.00074	106.68433	-4064.95703	57.42307	140.43906	-4082.40356	67.01354	100.17524	-4054.86304	54.65141	52.48928
867	7.21667	0.00000	0.00000	0.00000	-4258.41504	928.17957	322.12949	-4270.88672	573.87341	362.01367	0.00000	0.00000	0.00000	-4326.70850	595.91107	354.10513	-4339.38574	555.43134	349.85971	-4348.37451	483.05157	341.28503	-4351.72754	481.62869	230.21567	0.00000	0.00000	0.00000	0.00000	0.00000	0.00000	-4386.81689	409.70706	351.48300	-4403.22559	372.69852	358.98410	0.00000	0.00000	0.00000	0.00000	0.00000	0.00000	0.00000	0.00000	0.00000	-4602.47607	126.57431	355.31992	-4625.76074	170.42151	308.44168	-4614.86182	152.90591	268.02368	0.00000	0.00000	0.00000	-4253.97412	953.97052	63.72115	-4071.50610	600.42792	24.21406	-4065.83838	558.77826	22.03593	-4130.26074	584.41217	34.47118	-4113.66064	541.92242	31.51141	-4052.92358	440.65262	50.07279	0.00000	0.00000	0.00000	-3990.96021	298.79828	63.67851	0.00000	0.00000	0.00000	-4043.99805	278.07806	78.41359	-4026.55664	234.96941	73.17681	-3927.44824	113.04089	61.52027	-3937.75122	115.79331	143.84048	-3867.18286	98.33529	109.07448	-4065.18677	57.25684	140.46382	-4082.68457	66.81040	100.21606	-4055.07031	54.60028	52.52029
